<svg width="22" height="26" viewBox="0 0 22 26" fill="none" xmlns="http://www.w3.org/2000/svg">
<path d="M13 16.2836H9L9.66643 9.50418H12.3329L13 16.2836Z" stroke="#C2DD54" stroke-linecap="round" stroke-linejoin="round"/>
<path d="M21 25L20.9947 18.6837L11 18.6837L21 25Z" stroke="#C2DD54" stroke-linecap="round" stroke-linejoin="round"/>
<path d="M11 25L10.9957 18.6837L1 18.6837L11 25Z" stroke="#C2DD54" stroke-linecap="round" stroke-linejoin="round"/>
<path d="M5.61102 5.51002C5.42135 5.19492 5.34597 4.82551 5.39499 4.45135C5.44402 4.07719 5.61509 3.7162 5.88527 3.41681C6.15545 3.11743 6.5118 2.89398 6.90649 2.77646C7.30118 2.65893 7.71533 2.65296 8.09336 2.75933C8.13513 2.44676 8.28357 2.14633 8.51694 1.90206C8.7503 1.65779 9.05632 1.48254 9.39015 1.40197C9.72398 1.3214 10.0681 1.33976 10.372 1.45436C10.6759 1.56895 10.9237 1.77375 11.079 2.03876L11.0854 2.03442C11.4607 1.82457 11.8987 1.75429 12.3031 1.83906C12.7075 1.92383 13.0451 2.1567 13.2416 2.48643C13.4382 2.81617 13.4776 3.21577 13.3512 3.59732C13.2249 3.97887 12.943 4.31112 12.5677 4.52097C12.5449 4.53371 12.5208 4.54051 12.4972 4.55256C12.616 4.64067 12.7122 4.75167 12.7799 4.87886C12.8476 5.00606 12.8854 5.14681 12.891 5.29263C12.8966 5.43844 12.87 5.5863 12.8126 5.72727C12.7552 5.86824 12.6684 5.9994 12.5573 6.11284C12.5704 6.13027 12.5902 6.14036 12.6016 6.1595C12.6999 6.32434 12.7196 6.52412 12.6564 6.71487C12.5933 6.90562 12.4523 7.07173 12.2647 7.17664C12.0771 7.28156 11.8581 7.31669 11.6559 7.27431C11.4538 7.23193 11.285 7.11551 11.1867 6.95066C11.0981 6.79832 11.0766 6.61626 11.1264 6.43948C11.0101 6.3897 10.9053 6.32158 10.8163 6.23793C10.6993 6.3744 10.552 6.4869 10.3859 6.56682C10.2198 6.64673 10.0392 6.69193 9.85791 6.69897C9.67666 6.70601 9.49956 6.67469 9.34018 6.60742C9.1808 6.54015 9.04336 6.4387 8.93838 6.31085C8.76668 6.58577 8.51006 6.8112 8.20464 6.9554C7.89923 7.09959 7.5604 7.15529 7.23586 7.11465C6.91133 7.07402 6.61744 6.93909 6.39556 6.72887C6.17368 6.51864 6.035 6.24372 5.99904 5.94279C5.84335 5.82086 5.71231 5.67471 5.61102 5.51002Z" stroke="#C2DD54" stroke-linecap="round" stroke-linejoin="round"/>
</svg>
