<svg width="25" height="25" viewBox="0 0 25 25" fill="none" xmlns="http://www.w3.org/2000/svg">
<path d="M7.5 0V2.63158H11.25V9.56579C10.475 10.0395 10 10.9079 10 11.8421V13.1579H15V11.8421C15 10.9079 14.525 10.0395 13.75 9.56579V2.63158H17.5V0H7.5ZM5 11.8421C2.2375 11.8421 0 12.7237 0 13.8158C0 14.9079 2.2375 15.7895 5 15.7895C7.7625 15.7895 10 14.9079 10 13.8158C10 12.7237 7.7625 11.8421 5 11.8421ZM20 11.8421C17.2375 11.8421 15 12.7237 15 13.8158C15 14.9079 17.2375 15.7895 20 15.7895C22.7625 15.7895 25 14.9079 25 13.8158C25 12.7237 22.7625 11.8421 20 11.8421ZM10 14.4737V15.7895C10 16.7368 10.475 17.6053 11.25 18.0658C12.025 18.5395 12.975 18.5395 13.75 18.0658C14.525 17.6053 15 16.7237 15 15.7895V14.4737H10ZM13.75 21.0526V25H11.25V21.0526H13.75ZM17.35 17.7105L20 20.5132L18.2375 22.3684L15.5875 19.5789L17.35 17.7105ZM9.425 19.5789L6.7625 22.3684L5 20.5132L7.65 17.7237L9.425 19.5789Z" fill="#C2DD54"/>
</svg>
