<svg width="31" height="18" viewBox="0 0 31 18" fill="none" xmlns="http://www.w3.org/2000/svg">
<path d="M29.1417 2.49038L26.4221 3.67487C24.8458 4.36147 23.0825 3.20622 23.0825 1.4868C23.0825 1.09247 22.8799 0.714301 22.5191 0.435473C22.1584 0.156644 21.6691 0 21.159 0H3.84709C2.82677 0 1.84825 0.313288 1.12679 0.870945C0.405317 1.4286 0 2.18495 0 2.97359V14.868C0 15.6566 0.405317 16.413 1.12679 16.9706C1.84825 17.5283 2.82677 17.8416 3.84709 17.8416H21.159C21.6691 17.8416 22.1584 17.6849 22.5191 17.4061C22.8799 17.1273 23.0825 16.7491 23.0825 16.3548C23.0825 14.6283 24.8529 13.4684 26.4358 14.1578L29.1417 15.3363C29.2971 15.4148 29.4766 15.4603 29.662 15.4682C29.8474 15.4762 30.0322 15.4462 30.1979 15.3814C30.3636 15.3166 30.5043 15.2193 30.6059 15.0991C30.7075 14.979 30.7664 14.8403 30.7767 14.697V3.12227C30.7648 2.9796 30.7048 2.84182 30.6026 2.72268C30.5003 2.60354 30.3595 2.5072 30.194 2.44326C30.0286 2.37932 29.8444 2.35003 29.6597 2.3583C29.4751 2.36657 29.2964 2.41211 29.1417 2.49038Z" fill="#C2DD54"/>
<path d="M8.20757 10.4376H9.40512V10.9064H7.62664V7.36477H8.20757V10.4376ZM10.4413 7.72658C10.336 7.72658 10.2477 7.69091 10.1763 7.61956C10.105 7.54822 10.0693 7.45989 10.0693 7.35458C10.0693 7.24926 10.105 7.16093 10.1763 7.08959C10.2477 7.01825 10.336 6.98257 10.4413 6.98257C10.5432 6.98257 10.6298 7.01825 10.7012 7.08959C10.7725 7.16093 10.8082 7.24926 10.8082 7.35458C10.8082 7.45989 10.7725 7.54822 10.7012 7.61956C10.6298 7.69091 10.5432 7.72658 10.4413 7.72658ZM10.7267 8.09858V10.9064H10.1457V8.09858H10.7267ZM12.8296 10.3866L13.6246 8.09858H14.2412L13.171 10.9064H12.478L11.4129 8.09858H12.0347L12.8296 10.3866ZM17.5085 9.43371C17.5085 9.53903 17.5018 9.63415 17.4882 9.71908H15.3428C15.3598 9.9433 15.443 10.1234 15.5925 10.2593C15.742 10.3951 15.9254 10.4631 16.1428 10.4631C16.4554 10.4631 16.6762 10.3323 16.8053 10.0707H17.4321C17.3472 10.3289 17.1926 10.5412 16.9684 10.7077C16.7476 10.8708 16.4724 10.9523 16.1428 10.9523C15.8745 10.9523 15.6332 10.8928 15.4192 10.7739C15.2086 10.6516 15.0421 10.4818 14.9198 10.2643C14.8009 10.0435 14.7415 9.78873 14.7415 9.49996C14.7415 9.21119 14.7992 8.95809 14.9147 8.74067C15.0336 8.51984 15.1984 8.34998 15.409 8.23107C15.6231 8.11217 15.8677 8.05272 16.1428 8.05272C16.4078 8.05272 16.6439 8.11047 16.8512 8.22598C17.0584 8.34149 17.2198 8.50456 17.3353 8.71519C17.4508 8.92242 17.5085 9.16193 17.5085 9.43371ZM16.9021 9.25026C16.8987 9.03623 16.8223 8.86467 16.6728 8.73557C16.5233 8.60647 16.3382 8.54193 16.1174 8.54193C15.9169 8.54193 15.7454 8.60647 15.6027 8.73557C15.46 8.86127 15.3751 9.03283 15.3479 9.25026H16.9021Z" fill="white"/>
</svg>
