<svg width="25" height="25" viewBox="0 0 25 25" fill="none" xmlns="http://www.w3.org/2000/svg">
<path d="M9.82149 13.6228V3.57085C9.82149 2.6238 9.44521 1.71554 8.77544 1.04588C8.10566 0.376213 7.19725 0 6.25004 0C5.30283 0 4.39442 0.376213 3.72464 1.04588C3.05487 1.71554 2.67859 2.6238 2.67859 3.57085V13.6228C1.58663 14.383 0.765829 15.4718 0.335647 16.7307C-0.0945339 17.9897 -0.111642 19.353 0.286814 20.6223C0.68527 21.8916 1.47849 23.0007 2.55103 23.7881C3.62357 24.5754 4.91944 25 6.25004 25C7.58064 25 8.87651 24.5754 9.94905 23.7881C11.0216 23.0007 11.8148 21.8916 12.2133 20.6223C12.6117 19.353 12.5946 17.9897 12.1644 16.7307C11.7343 15.4718 10.9134 14.383 9.82149 13.6228ZM6.25004 1.78542C6.72364 1.78542 7.17785 1.97353 7.51274 2.30836C7.84763 2.64319 8.03577 3.09732 8.03577 3.57085V9.81983H4.46431V3.57085C4.46431 3.09732 4.65245 2.64319 4.98734 2.30836C5.32223 1.97353 5.77644 1.78542 6.25004 1.78542ZM6.25004 23.2105C5.26733 23.2105 4.31209 22.8862 3.53246 22.2881C2.75284 21.6899 2.19239 20.8513 1.93804 19.9022C1.6837 18.9531 1.74966 17.9467 2.1257 17.0389C2.50174 16.1312 3.16685 15.3728 4.01788 14.8815L4.46431 14.6315V11.6053H8.03577V14.6315L8.4822 14.8815C9.33323 15.3728 9.99833 16.1312 10.3744 17.0389C10.7504 17.9467 10.8164 18.9531 10.562 19.9022C10.3077 20.8513 9.74724 21.6899 8.96762 22.2881C8.18799 22.8862 7.23275 23.2105 6.25004 23.2105Z" fill="#C2DD54"/>
<path d="M16.6666 1.38889H25V4.16666H16.6666V1.38889Z" fill="#C2DD54"/>
<path d="M16.6666 6.94444H22.2222V8.33333H16.6666V6.94444Z" fill="#C2DD54"/>
<path d="M16.6666 12.5H25V13.8889H16.6666V12.5Z" fill="#C2DD54"/>
<path d="M16.6666 18.0556H22.2222V19.4444H16.6666V18.0556Z" fill="#C2DD54"/>
</svg>
