<svg width="30" height="29" viewBox="0 0 30 29" fill="none" xmlns="http://www.w3.org/2000/svg">
<path d="M28.947 11.7332H27.809V11.6745H15.0945V17.3255H23.0785C21.9137 20.615 18.7838 22.9764 15.0945 22.9764C10.4134 22.9764 6.61809 19.1811 6.61809 14.5C6.61809 9.8189 10.4134 6.0236 15.0945 6.0236C17.2552 6.0236 19.2211 6.83875 20.7178 8.17025L24.7138 4.17434C22.1906 1.82285 18.8156 0.372681 15.0945 0.372681C7.29267 0.372681 0.967163 6.69818 0.967163 14.5C0.967163 22.3018 7.29267 28.6273 15.0945 28.6273C22.8963 28.6273 29.2218 22.3018 29.2218 14.5C29.2218 13.5528 29.1243 12.6281 28.947 11.7332Z" fill="#FFC107"/>
<path d="M2.59595 7.92443L7.23747 11.3284C8.49339 8.21899 11.535 6.0236 15.0944 6.0236C17.2551 6.0236 19.221 6.83875 20.7178 8.17025L24.7137 4.17434C22.1905 1.82285 18.8155 0.372681 15.0944 0.372681C9.66808 0.372681 4.96227 3.43619 2.59595 7.92443Z" fill="#FF3D00"/>
<path d="M15.0945 28.6273C18.7436 28.6273 22.0593 27.2308 24.5662 24.9599L20.1938 21.2599C18.7278 22.3748 16.9364 22.9778 15.0945 22.9764C11.42 22.9764 8.30001 20.6334 7.12462 17.3636L2.5177 20.9131C4.85577 25.4882 9.60396 28.6273 15.0945 28.6273Z" fill="#4CAF50"/>
<path d="M28.947 11.7331H27.8091V11.6745H15.0945V17.3254H23.0785C22.5214 18.891 21.5177 20.2591 20.1916 21.2606L20.1937 21.2592L24.5661 24.9591C24.2567 25.2403 29.2218 21.5636 29.2218 14.5C29.2218 13.5527 29.1243 12.6281 28.947 11.7331Z" fill="#1976D2"/>
</svg>
