<svg width="25" height="25" viewBox="0 0 25 25" fill="none" xmlns="http://www.w3.org/2000/svg">
<path d="M11.1111 6.94444C8.04167 6.94444 5.55556 9.43056 5.55556 12.5C5.55556 15.5694 8.04167 18.0556 11.1111 18.0556C14.1806 18.0556 16.6667 15.5694 16.6667 12.5C16.6667 9.43056 14.1806 6.94444 11.1111 6.94444ZM11.1111 15.2778C9.58333 15.2778 8.33333 14.0417 8.33333 12.5C8.33333 10.9583 9.58333 9.72222 11.1111 9.72222C12.6389 9.72222 13.8889 10.9722 13.8889 12.5C13.8889 14.0278 12.6528 15.2778 11.1111 15.2778ZM5.55556 0H15.2778C18.3472 0 20.8333 2.48611 20.8333 5.55556V6.94444H18.0556V5.55556C18.0556 4.81884 17.7629 4.1123 17.242 3.59137C16.721 3.07044 16.0145 2.77778 15.2778 2.77778H5.55556C4.02778 2.77778 2.77778 4.02778 2.77778 5.55556V22.2222H18.0556V19.4444H20.8333V25H0V5.55556C0 2.48611 2.48611 0 5.55556 0ZM22.2222 9.02778C22.2222 9.02778 25 12.0417 25 13.8889C25 15.4167 23.75 16.6667 22.2222 16.6667C20.6944 16.6667 19.4444 15.4167 19.4444 13.8889C19.4444 12.0417 22.2222 9.02778 22.2222 9.02778Z" fill="#C2DD54"/>
</svg>
