<svg width="25" height="25" viewBox="0 0 25 25" fill="none" xmlns="http://www.w3.org/2000/svg">
<path d="M11.6072 0H13.3929V4.46429H11.6072V0Z" fill="#C2DD54"/>
<path d="M17.5776 6.16073L20.708 3.02948L21.9705 4.29287L18.8401 7.42323L17.5776 6.16073Z" fill="#C2DD54"/>
<path d="M20.5358 11.6071H25.0001V13.3928H20.5358V11.6071Z" fill="#C2DD54"/>
<path d="M17.5776 18.8393L18.8401 17.5768L21.9705 20.7072L20.708 21.9706L17.5776 18.8393Z" fill="#C2DD54"/>
<path d="M11.6072 20.5357H13.3929V25H11.6072V20.5357Z" fill="#C2DD54"/>
<path d="M3.03033 20.7072L6.16069 17.5768L7.42319 18.8402L4.29283 21.9706L3.03033 20.7072Z" fill="#C2DD54"/>
<path d="M0 11.6071H4.46429V13.3928H0V11.6071Z" fill="#C2DD54"/>
<path d="M3.03033 4.29287L4.29283 3.02948L7.42319 6.16073L6.16069 7.42323L3.03033 4.29287Z" fill="#C2DD54"/>
<path d="M12.5 8.9286C13.2063 8.9286 13.8968 9.13806 14.4841 9.53049C15.0715 9.92293 15.5292 10.4807 15.7995 11.1333C16.0699 11.7859 16.1406 12.504 16.0028 13.1968C15.865 13.8896 15.5248 14.5259 15.0253 15.0254C14.5259 15.5249 13.8895 15.865 13.1967 16.0028C12.5039 16.1406 11.7858 16.0699 11.1332 15.7996C10.4806 15.5293 9.92287 15.0715 9.53043 14.4842C9.138 13.8969 8.92854 13.2064 8.92854 12.5C8.92972 11.5532 9.30637 10.6455 9.97589 9.97595C10.6454 9.30643 11.5531 8.92978 12.5 8.9286V8.9286ZM12.5 7.14288C11.4404 7.14288 10.4047 7.45707 9.5237 8.04573C8.64272 8.63438 7.95608 9.47105 7.55061 10.4499C7.14514 11.4288 7.03905 12.506 7.24576 13.5452C7.45247 14.5843 7.96269 15.5389 8.7119 16.2881C9.46111 17.0373 10.4157 17.5475 11.4548 17.7542C12.494 17.9609 13.5712 17.8549 14.5501 17.4494C15.5289 17.0439 16.3656 16.3573 16.9543 15.4763C17.5429 14.5953 17.8571 13.5596 17.8571 12.5C17.8571 11.0792 17.2927 9.71661 16.288 8.71195C15.2834 7.7073 13.9208 7.14288 12.5 7.14288Z" fill="#C2DD54"/>
</svg>
