<svg width="357" height="268" viewBox="0 0 357 268" fill="none" xmlns="http://www.w3.org/2000/svg">
<path fill-rule="evenodd" clip-rule="evenodd" d="M187.513 50.0832C194.286 48.8405 199.43 42.7063 199.43 35.3262C199.43 27.0491 192.959 20.3393 184.978 20.3393C176.997 20.3393 170.526 27.0491 170.526 35.3262C170.526 43.368 176.634 49.9305 184.302 50.2969V169.102V170.272L185.415 170.631L268.853 197.476V267.622H272.064V196.306V195.135L270.95 194.777L187.513 167.932V50.0832ZM244.59 151.457V43.8661C236.718 43.4314 230.474 37.1381 230.474 29.4385C230.474 21.4571 237.184 14.9869 245.461 14.9869C253.738 14.9869 260.447 21.4571 260.447 29.4385C260.447 36.6519 254.967 42.631 247.802 43.7148V150.234L302.501 165.349L303.679 165.674V166.896V267.622H300.467V168.119L245.768 153.004L244.59 152.679V151.457ZM130.63 35.2909V35.3847C122.99 36.0468 117.002 42.238 117.002 49.7778C117.002 57.3176 122.99 63.5088 130.63 64.1708V84.5511V86.1568H132.236H155.628V154.262H114.59H112.985V155.868V265.417H116.196V157.474H157.233H158.839V155.868V84.5511V82.9453H157.233H133.841V64.12C141.244 63.2399 146.975 57.1542 146.975 49.7778C146.975 42.4013 141.244 36.3156 133.841 35.4355V35.2909H130.63ZM16.2052 50.24C23.5128 49.4929 29.2216 43.1009 29.2216 35.3262C29.2216 27.0491 22.7514 20.3393 14.77 20.3393C6.78857 20.3393 0.318359 27.0491 0.318359 35.3262C0.318359 42.9796 5.8503 49.293 12.9937 50.2009V129.4V131.006H14.5995H57.1073V261.005H60.3188V129.4V127.794H58.7131H16.2052V50.24ZM345.587 28.5371C352.005 27.0638 356.792 21.3167 356.792 14.4516C356.792 6.47021 350.321 0 342.34 0C334.359 0 327.888 6.47021 327.888 14.4516C327.888 22.433 334.359 28.9032 342.34 28.9032L342.375 28.9032V60.8885H293.25H291.645V62.4943V131.606V133.211H293.25H342.375V267.622H345.587V131.606V130H343.981H294.856V64.1H343.981H345.587V62.4943V28.5371Z" fill="#F3FFDA"/>
</svg>
