<svg width="357" height="268" viewBox="0 0 357 268" fill="none" xmlns="http://www.w3.org/2000/svg">
<path fill-rule="evenodd" clip-rule="evenodd" d="M187.513 217.539C194.286 218.782 199.43 224.916 199.43 232.296C199.43 240.573 192.959 247.283 184.978 247.283C176.997 247.283 170.526 240.573 170.526 232.296C170.526 224.254 176.634 217.692 184.302 217.326V98.5204V97.3502L185.415 96.9918L268.853 70.1468V0H272.064V71.317V72.4872L270.95 72.8456L187.513 99.6905V217.539ZM244.59 116.166V223.756C236.718 224.191 230.474 230.484 230.474 238.184C230.474 246.165 237.184 252.636 245.461 252.636C253.738 252.636 260.447 246.165 260.447 238.184C260.447 230.971 254.967 224.991 247.802 223.908V117.388L302.501 102.274L303.679 101.948V100.726V5.72205e-06H300.467V99.5038L245.768 114.618L244.59 114.944V116.166ZM130.63 232.332V232.238C122.99 231.576 117.002 225.385 117.002 217.845C117.002 210.305 122.99 204.114 130.63 203.452V183.071V181.466H132.236H155.628V113.36H114.59H112.985V111.754V2.20567H116.196V110.149H157.233H158.839V111.754V183.071V184.677H157.233H133.841V203.502C141.244 204.383 146.975 210.468 146.975 217.845C146.975 225.221 141.244 231.307 133.841 232.187V232.332H130.63ZM16.2052 217.382C23.5128 218.13 29.2216 224.522 29.2216 232.296C29.2216 240.573 22.7514 247.283 14.77 247.283C6.78857 247.283 0.318359 240.573 0.318359 232.296C0.318359 224.643 5.8503 218.329 12.9937 217.422V138.223V136.617H14.5995H57.1073V6.61704H60.3188V138.223V139.828H58.7131H16.2052V217.382ZM345.587 239.085C352.005 240.559 356.792 246.306 356.792 253.171C356.792 261.152 350.321 267.622 342.34 267.622C334.359 267.622 327.888 261.152 327.888 253.171C327.888 245.189 334.359 238.719 342.34 238.719L342.375 238.719V206.734H293.25H291.645V205.128V136.017V134.411H293.25H342.375V2.09808e-05H345.587V136.017V137.623H343.981H294.856V203.522H343.981H345.587V205.128V239.085Z" fill="#F3FFDA"/>
</svg>
