<svg width="20" height="25" viewBox="0 0 20 25" fill="none" xmlns="http://www.w3.org/2000/svg">
<path d="M18.3067 10.9927L10.9411 0.436526C10.8342 0.301533 10.6931 0.191484 10.5294 0.115551C10.3657 0.0396175 10.1842 0 10 0C9.81583 0 9.63433 0.0396175 9.47063 0.115551C9.30692 0.191484 9.16576 0.301533 9.05889 0.436526L1.66 11.0427C0.632095 12.535 0.0595176 14.2449 0 15.9998C0 18.3868 1.05357 20.6761 2.92893 22.3639C4.8043 24.0518 7.34784 25 10 25C12.6522 25 15.1957 24.0518 17.0711 22.3639C18.9464 20.6761 20 18.3868 20 15.9998C19.9361 14.2256 19.3519 12.4981 18.3067 10.9927ZM10 23C7.93802 22.9976 5.96125 22.2593 4.5032 20.947C3.04516 19.6348 2.22487 17.8556 2.22222 15.9998C2.28128 14.6014 2.74801 13.2415 3.57556 12.0568L4.61444 10.5667L15.8078 20.6409C15.0808 21.3822 14.187 21.976 13.1858 22.3828C12.1845 22.7897 11.0986 23.0004 10 23.001V23Z" fill="#C2DD54"/>
</svg>
