<svg width="25" height="25" viewBox="0 0 25 25" fill="none" xmlns="http://www.w3.org/2000/svg">
<path d="M21.25 15.625C21.25 15.625 23.75 18.3375 23.75 20C23.75 20.663 23.4866 21.2989 23.0178 21.7678C22.5489 22.2366 21.913 22.5 21.25 22.5C20.587 22.5 19.9511 22.2366 19.4822 21.7678C19.0134 21.2989 18.75 20.663 18.75 20C18.75 18.3375 21.25 15.625 21.25 15.625ZM3.75 20V8.75C3.08696 8.75 2.45107 8.48661 1.98223 8.01777C1.51339 7.54893 1.25 6.91304 1.25 6.25C1.25 5.58696 1.51339 4.95107 1.98223 4.48223C2.45107 4.01339 3.08696 3.75 3.75 3.75V2.5C3.75 1.83696 4.01339 1.20107 4.48223 0.732233C4.95107 0.263392 5.58696 0 6.25 0H8.75C9.41304 0 10.0489 0.263392 10.5178 0.732233C10.9866 1.20107 11.25 1.83696 11.25 2.5V3.75H21.25C21.913 3.75 22.5489 4.01339 23.0178 4.48223C23.4866 4.95107 23.75 5.58696 23.75 6.25V11.25C24.0815 11.25 24.3995 11.3817 24.6339 11.6161C24.8683 11.8505 25 12.1685 25 12.5C25 12.8315 24.8683 13.1495 24.6339 13.3839C24.3995 13.6183 24.0815 13.75 23.75 13.75H18.75C18.4185 13.75 18.1005 13.6183 17.8661 13.3839C17.6317 13.1495 17.5 12.8315 17.5 12.5C17.5 12.1685 17.6317 11.8505 17.8661 11.6161C18.1005 11.3817 18.4185 11.25 18.75 11.25V8.75H11.25V20H12.5C13.163 20 13.7989 20.2634 14.2678 20.7322C14.7366 21.2011 15 21.837 15 22.5V25H0V22.5C0 21.837 0.263392 21.2011 0.732233 20.7322C1.20107 20.2634 1.83696 20 2.5 20H3.75Z" fill="#C2DD54"/>
</svg>
