<svg width="25" height="25" viewBox="0 0 25 25" fill="none" xmlns="http://www.w3.org/2000/svg">
<path d="M15.625 20.5882C15.625 23.0147 13.9375 25 11.875 25C9.8125 25 8.125 23.0147 8.125 20.5882H10.625C10.625 21.3971 11.1875 22.0588 11.875 22.0588C12.5625 22.0588 13.125 21.3971 13.125 20.5882C13.125 19.7794 12.5625 19.1176 11.875 19.1176H0V16.1765H11.875C13.9375 16.1765 15.625 18.1618 15.625 20.5882ZM21.25 5.14706C21.25 2.30882 19.2875 0 16.875 0C14.4625 0 12.5 2.30882 12.5 5.14706H15C15 3.92647 15.8375 2.94118 16.875 2.94118C17.9125 2.94118 18.75 3.92647 18.75 5.14706C18.75 6.36765 17.9125 7.35294 16.875 7.35294H0V10.2941H16.875C19.2875 10.2941 21.25 7.98529 21.25 5.14706ZM20.625 11.7647H0V14.7059H20.625C21.6625 14.7059 22.5 15.6912 22.5 16.9118C22.5 18.1324 21.6625 19.1176 20.625 19.1176V22.0588C23.0375 22.0588 25 19.75 25 16.9118C25 14.0735 23.0375 11.7647 20.625 11.7647Z" fill="#C2DD54"/>
</svg>
